<mxfile host="app.diagrams.net" modified="2022-07-12T10:42:59.335Z" agent="5.0 (Windows)" etag="2iZTuLKRd-GMZ8sw5lNc" version="20.0.4" type="github">
  <diagram id="LalK_oJfabx4UR3zuxyZ" name="Page-1">
    <mxGraphModel dx="1422" dy="780" grid="1" gridSize="10" guides="1" tooltips="1" connect="1" arrows="1" fold="1" page="1" pageScale="1" pageWidth="827" pageHeight="1169" math="0" shadow="0">
      <root>
        <mxCell id="0" />
        <mxCell id="1" parent="0" />
        <mxCell id="YAAHLTh8RJEyFXACBXn_-12" style="edgeStyle=orthogonalEdgeStyle;rounded=0;orthogonalLoop=1;jettySize=auto;html=1;exitX=0.5;exitY=0.5;exitDx=0;exitDy=0;exitPerimeter=0;entryX=0;entryY=0.5;entryDx=0;entryDy=0;" edge="1" parent="1" source="YAAHLTh8RJEyFXACBXn_-1" target="YAAHLTh8RJEyFXACBXn_-5">
          <mxGeometry relative="1" as="geometry" />
        </mxCell>
        <mxCell id="YAAHLTh8RJEyFXACBXn_-13" style="edgeStyle=orthogonalEdgeStyle;rounded=0;orthogonalLoop=1;jettySize=auto;html=1;exitX=0.5;exitY=0.5;exitDx=0;exitDy=0;exitPerimeter=0;entryX=0;entryY=0.5;entryDx=0;entryDy=0;" edge="1" parent="1" source="YAAHLTh8RJEyFXACBXn_-1" target="YAAHLTh8RJEyFXACBXn_-6">
          <mxGeometry relative="1" as="geometry" />
        </mxCell>
        <mxCell id="YAAHLTh8RJEyFXACBXn_-14" style="edgeStyle=orthogonalEdgeStyle;rounded=0;orthogonalLoop=1;jettySize=auto;html=1;exitX=0.5;exitY=0.5;exitDx=0;exitDy=0;exitPerimeter=0;entryX=0;entryY=0.5;entryDx=0;entryDy=0;" edge="1" parent="1" source="YAAHLTh8RJEyFXACBXn_-1" target="YAAHLTh8RJEyFXACBXn_-7">
          <mxGeometry relative="1" as="geometry" />
        </mxCell>
        <mxCell id="YAAHLTh8RJEyFXACBXn_-15" style="edgeStyle=orthogonalEdgeStyle;rounded=0;orthogonalLoop=1;jettySize=auto;html=1;exitX=0.5;exitY=0.5;exitDx=0;exitDy=0;exitPerimeter=0;entryX=0;entryY=0.5;entryDx=0;entryDy=0;" edge="1" parent="1" source="YAAHLTh8RJEyFXACBXn_-1" target="YAAHLTh8RJEyFXACBXn_-8">
          <mxGeometry relative="1" as="geometry" />
        </mxCell>
        <mxCell id="YAAHLTh8RJEyFXACBXn_-16" style="edgeStyle=orthogonalEdgeStyle;rounded=0;orthogonalLoop=1;jettySize=auto;html=1;exitX=0.5;exitY=0.5;exitDx=0;exitDy=0;exitPerimeter=0;entryX=0;entryY=0.5;entryDx=0;entryDy=0;" edge="1" parent="1" source="YAAHLTh8RJEyFXACBXn_-1" target="YAAHLTh8RJEyFXACBXn_-9">
          <mxGeometry relative="1" as="geometry" />
        </mxCell>
        <mxCell id="YAAHLTh8RJEyFXACBXn_-18" style="edgeStyle=orthogonalEdgeStyle;rounded=0;orthogonalLoop=1;jettySize=auto;html=1;exitX=0.5;exitY=0.5;exitDx=0;exitDy=0;exitPerimeter=0;entryX=0;entryY=0.5;entryDx=0;entryDy=0;" edge="1" parent="1" source="YAAHLTh8RJEyFXACBXn_-1" target="YAAHLTh8RJEyFXACBXn_-10">
          <mxGeometry relative="1" as="geometry">
            <mxPoint x="80" y="430" as="targetPoint" />
          </mxGeometry>
        </mxCell>
        <mxCell id="YAAHLTh8RJEyFXACBXn_-19" style="edgeStyle=orthogonalEdgeStyle;rounded=0;orthogonalLoop=1;jettySize=auto;html=1;exitX=0.5;exitY=0.5;exitDx=0;exitDy=0;exitPerimeter=0;entryX=0;entryY=0.5;entryDx=0;entryDy=0;" edge="1" parent="1" source="YAAHLTh8RJEyFXACBXn_-1" target="YAAHLTh8RJEyFXACBXn_-11">
          <mxGeometry relative="1" as="geometry">
            <mxPoint x="160" y="520" as="targetPoint" />
          </mxGeometry>
        </mxCell>
        <mxCell id="YAAHLTh8RJEyFXACBXn_-20" style="edgeStyle=orthogonalEdgeStyle;rounded=0;orthogonalLoop=1;jettySize=auto;html=1;exitX=0.5;exitY=0.5;exitDx=0;exitDy=0;exitPerimeter=0;entryX=0;entryY=0.5;entryDx=0;entryDy=0;" edge="1" parent="1" source="YAAHLTh8RJEyFXACBXn_-1" target="YAAHLTh8RJEyFXACBXn_-2">
          <mxGeometry relative="1" as="geometry">
            <mxPoint x="330" y="170" as="targetPoint" />
          </mxGeometry>
        </mxCell>
        <mxCell id="YAAHLTh8RJEyFXACBXn_-1" value="Actor" style="shape=umlActor;verticalLabelPosition=bottom;verticalAlign=top;html=1;outlineConnect=0;" vertex="1" parent="1">
          <mxGeometry x="40" y="380" width="30" height="60" as="geometry" />
        </mxCell>
        <mxCell id="YAAHLTh8RJEyFXACBXn_-2" value="Kreiraj profil" style="rounded=0;whiteSpace=wrap;html=1;" vertex="1" parent="1">
          <mxGeometry x="340" y="140" width="120" height="40" as="geometry" />
        </mxCell>
        <mxCell id="YAAHLTh8RJEyFXACBXn_-5" value="Evidentiranje nove voznje" style="rounded=0;whiteSpace=wrap;html=1;" vertex="1" parent="1">
          <mxGeometry x="340" y="210" width="120" height="40" as="geometry" />
        </mxCell>
        <mxCell id="YAAHLTh8RJEyFXACBXn_-6" value="&lt;div&gt;Evidentiranje nove narudzbe&lt;/div&gt;" style="rounded=0;whiteSpace=wrap;html=1;" vertex="1" parent="1">
          <mxGeometry x="340" y="280" width="120" height="40" as="geometry" />
        </mxCell>
        <mxCell id="YAAHLTh8RJEyFXACBXn_-7" value="&lt;div&gt;Pregled lokala za kupovinu&lt;/div&gt;" style="rounded=0;whiteSpace=wrap;html=1;" vertex="1" parent="1">
          <mxGeometry x="340" y="350" width="120" height="40" as="geometry" />
        </mxCell>
        <mxCell id="YAAHLTh8RJEyFXACBXn_-8" value="Pregled dostupnih vozaca" style="rounded=0;whiteSpace=wrap;html=1;" vertex="1" parent="1">
          <mxGeometry x="340" y="420" width="120" height="40" as="geometry" />
        </mxCell>
        <mxCell id="YAAHLTh8RJEyFXACBXn_-9" value="&lt;div&gt;Pregled proslih narudzbi&lt;/div&gt;" style="rounded=0;whiteSpace=wrap;html=1;" vertex="1" parent="1">
          <mxGeometry x="340" y="490" width="120" height="40" as="geometry" />
        </mxCell>
        <mxCell id="YAAHLTh8RJEyFXACBXn_-10" value="Real-time pracenje" style="rounded=0;whiteSpace=wrap;html=1;" vertex="1" parent="1">
          <mxGeometry x="340" y="560" width="120" height="40" as="geometry" />
        </mxCell>
        <mxCell id="YAAHLTh8RJEyFXACBXn_-11" value="&lt;div&gt;Evidentiranje nove narudzbe&lt;/div&gt;" style="rounded=0;whiteSpace=wrap;html=1;" vertex="1" parent="1">
          <mxGeometry x="340" y="630" width="120" height="40" as="geometry" />
        </mxCell>
        <mxCell id="YAAHLTh8RJEyFXACBXn_-21" value="" style="shape=image;html=1;verticalAlign=top;verticalLabelPosition=bottom;labelBackgroundColor=#ffffff;imageAspect=0;aspect=fixed;image=https://cdn3.iconfinder.com/data/icons/flat-actions-icons-9/512/Tick_Mark-128.png" vertex="1" parent="1">
          <mxGeometry x="750" y="10" width="30" height="30" as="geometry" />
        </mxCell>
        <mxCell id="YAAHLTh8RJEyFXACBXn_-22" value="" style="shape=image;html=1;verticalAlign=top;verticalLabelPosition=bottom;labelBackgroundColor=#ffffff;imageAspect=0;aspect=fixed;image=https://cdn2.iconfinder.com/data/icons/onebit/PNG/onebit_33.png" vertex="1" parent="1">
          <mxGeometry x="790" y="10" width="30" height="30" as="geometry" />
        </mxCell>
      </root>
    </mxGraphModel>
  </diagram>
</mxfile>
